<svg xmlns="http://www.w3.org/2000/svg" viewBox="0 0 418.35 61.41"><defs><style>.cls-1{fill:none;stroke:#231f20;stroke-linejoin:bevel;stroke-width:10px;}</style></defs><title>Asset 4</title><g id="Layer_2" data-name="Layer 2"><g id="Layer_1-2" data-name="Layer 1"><path class="cls-1" d="M5,56.05V5.36H26.74a12.19,12.19,0,0,1,11,5.9,12.59,12.59,0,0,1,0,12.46,11.51,11.51,0,0,1-4.54,4.36,14.14,14.14,0,0,1-6.41,1.54h0a17.51,17.51,0,0,1,7.1,1.48,11.81,11.81,0,0,1,5.36,4.72,13.07,13.07,0,0,1,0,14,12.71,12.71,0,0,1-5.26,4.83,15,15,0,0,1-7.2,1.44h0a15,15,0,0,0,7.2-1.44,12.71,12.71,0,0,0,5.26-4.83,13.07,13.07,0,0,0,0-14,11.81,11.81,0,0,0-5.36-4.72,17.51,17.51,0,0,0-7.1-1.48,14.14,14.14,0,0,0,6.41-1.54,11.51,11.51,0,0,0,4.54-4.36,12.59,12.59,0,0,0,0-12.46,12.19,12.19,0,0,0-10.95-5.9H5Z"/><path class="cls-1" d="M98.82,17.89a24.52,24.52,0,0,0-8.64-9.43,21.65,21.65,0,0,0-23.48,0,24.52,24.52,0,0,0-8.64,9.43A26.94,26.94,0,0,0,54.9,30.7a27.11,27.11,0,0,0,3.16,12.89A23.92,23.92,0,0,0,66.7,53a21.65,21.65,0,0,0,23.48,0,23.92,23.92,0,0,0,8.64-9.36,27.24,27.24,0,0,0,3.16-13,27.24,27.24,0,0,1-3.16,13A23.92,23.92,0,0,1,90.18,53,21.65,21.65,0,0,1,66.7,53a23.92,23.92,0,0,1-8.64-9.36A27.11,27.11,0,0,1,54.9,30.7a26.94,26.94,0,0,1,3.16-12.81A24.52,24.52,0,0,1,66.7,8.46a21.65,21.65,0,0,1,23.48,0,24.52,24.52,0,0,1,8.64,9.43A26.81,26.81,0,0,1,102,30.63,26.81,26.81,0,0,0,98.82,17.89Z"/><path class="cls-1" d="M115.66,56.05V5.36h18.51a19.2,19.2,0,0,1,8.71,2.41,21.59,21.59,0,0,1,6.59,5.73,26.77,26.77,0,0,1,4.17,8,29.19,29.19,0,0,1,1.48,9.29,30,30,0,0,1-1.48,9.46,24.7,24.7,0,0,1-4.24,7.92,22.43,22.43,0,0,1-6.63,5.55,19.53,19.53,0,0,1-8.6,2.34h0a19.53,19.53,0,0,0,8.6-2.34,22.43,22.43,0,0,0,6.63-5.55,24.7,24.7,0,0,0,4.24-7.92,30,30,0,0,0,1.48-9.46,29.19,29.19,0,0,0-1.48-9.29,26.77,26.77,0,0,0-4.17-8,21.59,21.59,0,0,0-6.59-5.73,19.2,19.2,0,0,0-8.71-2.41H115.66Z"/><path class="cls-1" d="M164.77,4.64l18.57,28.58v0L201.92,4.64,183.34,33.22Z"/><path class="cls-1" d="M240.37,5.43h19.15v0Z"/><path class="cls-1" d="M322.88,5.36H289.54V56.05h0V29.62h0V5.36Z"/><path class="cls-1" d="M334.69,4.64,352.9,30.7,334.69,56.77,352.9,30.7l18.22,26.07L352.9,30.7,371.12,4.64,352.9,30.7Z"/><path class="cls-1" d="M380,5.43H399.2v0Z"/></g></g></svg>